<?xml version="1.0" standalone="no"?>
<!DOCTYPE svg PUBLIC "-//W3C//DTD SVG 20010904//EN"
 "http://www.w3.org/TR/2001/REC-SVG-20010904/DTD/svg10.dtd">
<svg version="1.0" xmlns="http://www.w3.org/2000/svg"
 width="456.000000pt" height="407.000000pt" viewBox="0 0 456.000000 407.000000"
 preserveAspectRatio="xMidYMid meet">

<g transform="translate(0.000000,407.000000) scale(0.100000,-0.100000)"
fill="#000000" stroke="none">
<path d="M0 2035 l0 -2035 2280 0 2280 0 0 2035 0 2035 -2280 0 -2280 0 0
-2035z m1792 1495 c307 -148 562 -270 566 -270 5 0 260 122 568 271 538 261
561 271 607 266 40 -3 56 -11 87 -43 21 -22 205 -232 409 -468 293 -339 372
-436 377 -464 5 -24 -22 -249 -75 -642 -64 -479 -85 -610 -100 -630 -10 -14
-173 -174 -362 -357 l-344 -332 -545 -359 c-300 -198 -555 -365 -567 -371 -12
-6 -39 -11 -60 -11 -34 0 -105 44 -596 368 l-557 368 -360 344 c-287 274 -363
352 -370 380 -16 55 -160 1146 -160 1208 0 44 5 62 25 88 69 91 770 891 793
906 60 39 71 35 664 -252z"/>
<path d="M1250 3473 c0 -4 -23 -140 -50 -301 -28 -162 -49 -296 -47 -298 4 -4
867 223 874 230 3 2 -17 16 -44 29 -106 53 -721 347 -727 347 -3 0 -6 -3 -6
-7z"/>
<path d="M3220 3367 c-129 -62 -305 -147 -390 -188 l-154 -75 219 -58 c394
-105 669 -176 672 -172 2 2 -19 137 -46 299 -28 162 -51 297 -51 301 0 12 -17
4 -250 -107z"/>
<path d="M3673 3255 c3 -16 20 -116 38 -222 l32 -192 111 6 c61 3 126 8 144
12 l33 6 -171 200 c-208 242 -194 227 -187 190z"/>
<path d="M867 3067 l-176 -205 62 -6 c221 -19 226 -19 231 6 16 68 67 390 64
399 -2 6 -83 -81 -181 -194z"/>
<path d="M1740 2854 c-272 -73 -499 -133 -503 -133 -5 -1 -7 -5 -5 -10 2 -6
921 -772 1031 -860 16 -13 17 19 17 563 l0 576 -22 -1 c-13 -1 -246 -61 -518
-135z"/>
<path d="M2445 2978 c-3 -7 -4 -266 -3 -576 l3 -562 520 431 c286 237 521 435
523 439 4 10 15 7 -263 79 -126 33 -348 92 -493 131 -145 38 -268 70 -273 70
-5 0 -12 -6 -14 -12z"/>
<path d="M600 2687 c0 -16 68 -550 76 -597 5 -31 19 -3 130 274 68 171 123
311 121 312 -2 2 -285 24 -311 24 -9 0 -16 -6 -16 -13z"/>
<path d="M3930 2688 c-74 -6 -136 -11 -138 -13 -2 -1 52 -140 119 -309 68
-168 124 -304 125 -303 4 3 84 599 84 621 0 18 12 18 -190 4z"/>
<path d="M1160 2533 c0 -21 182 -1417 185 -1421 5 -6 866 551 863 559 -2 4
-238 204 -525 444 -343 285 -523 429 -523 418z"/>
<path d="M3050 2129 c-278 -231 -515 -430 -527 -442 l-23 -22 433 -277 c431
-276 432 -276 440 -250 9 32 188 1404 184 1408 -2 2 -230 -186 -507 -417z"/>
<path d="M866 2069 c-75 -193 -136 -358 -134 -367 3 -16 398 -403 418 -410 4
-2 7 5 4 15 -2 10 -35 263 -74 563 -39 299 -72 546 -74 547 -1 2 -64 -155
-140 -348z"/>
<path d="M3710 2409 c-1 -8 -34 -261 -74 -564 -40 -302 -72 -552 -70 -554 6
-7 419 396 422 411 3 13 -262 705 -274 717 -2 2 -4 -2 -4 -10z"/>
<path d="M1876 1253 c-212 -136 -386 -250 -386 -253 0 -9 775 -517 783 -513
10 6 9 1013 -2 1013 -4 0 -182 -111 -395 -247z"/>
<path d="M2440 990 c0 -281 4 -510 9 -508 17 6 780 513 780 518 0 5 -762 492
-779 498 -6 2 -10 -185 -10 -508z"/>
</g>
</svg>
