<svg xmlns="http://www.w3.org/2000/svg" width="456" height="407" viewBox="0 0 456 407" version="1.1"><path d="M 118.250 26.689 C 119.213 26.941, 120.787 26.941, 121.750 26.689 C 122.713 26.438, 121.925 26.232, 120 26.232 C 118.075 26.232, 117.287 26.438, 118.250 26.689 M 350.269 26.693 C 351.242 26.947, 352.592 26.930, 353.269 26.656 C 353.946 26.382, 353.150 26.175, 351.500 26.195 C 349.850 26.215, 349.296 26.439, 350.269 26.693 M 111.476 28.783 C 109.714 30.278, 93.563 48.749, 54.070 94.434 C 48.333 101.070, 41.190 109.313, 38.197 112.750 C 35.204 116.188, 32.992 119, 33.282 119 C 33.571 119, 41.892 109.662, 51.773 98.250 C 61.654 86.838, 77.721 68.275, 87.477 57 C 108.622 32.563, 111.876 29.067, 114.500 27.966 C 115.783 27.428, 115.962 27.116, 115 27.097 C 114.175 27.080, 112.589 27.839, 111.476 28.783 M 130 30.500 C 133.575 32.372, 136.950 33.903, 137.500 33.903 C 138.050 33.903, 135.575 32.372, 132 30.500 C 128.425 28.628, 125.050 27.097, 124.500 27.097 C 123.950 27.097, 126.425 28.628, 130 30.500 M 357.500 28.129 C 358.600 28.716, 362.357 32.190, 365.849 35.848 L 372.198 42.500 366.427 35.693 C 361.028 29.325, 358.265 26.958, 356.316 27.030 C 355.867 27.047, 356.400 27.541, 357.500 28.129 M 339.750 30.068 C 337.688 31.157, 336 32.271, 336 32.544 C 336 32.990, 343.899 29.298, 344.917 28.377 C 346.067 27.336, 343.064 28.319, 339.750 30.068 M 325.782 36.887 C 317.687 40.785, 314.003 43.249, 320 40.754 C 325.164 38.606, 335.658 33.090, 334.500 33.133 C 333.950 33.154, 330.027 34.843, 325.782 36.887 M 143.083 36.365 C 143.313 36.565, 144.625 37.265, 146 37.920 C 148.357 39.042, 148.389 39.022, 146.559 37.555 C 144.966 36.279, 141.711 35.164, 143.083 36.365 M 158 44 C 163.225 46.694, 167.950 48.898, 168.500 48.898 C 169.050 48.898, 165.225 46.694, 160 44 C 154.775 41.306, 150.050 39.102, 149.500 39.102 C 148.950 39.102, 152.775 41.306, 158 44 M 309.750 44.572 C 305.873 46.675, 306.312 47.401, 310.250 45.399 C 314.020 43.481, 314.687 42.985, 313.417 43.040 C 312.913 43.062, 311.262 43.751, 309.750 44.572 M 374.648 46.250 C 376.321 48.038, 389.262 62.888, 403.407 79.250 C 417.552 95.613, 429.355 109, 429.637 109 C 430.198 109, 427.957 106.374, 395.221 68.664 C 382.967 54.549, 372.641 43, 372.275 43 C 371.908 43, 372.976 44.462, 374.648 46.250 M 294.247 52.223 C 289.708 54.481, 286.174 56.508, 286.394 56.727 C 286.613 56.946, 290.777 55.095, 295.646 52.614 C 300.516 50.132, 304.050 48.105, 303.500 48.110 C 302.950 48.114, 298.786 49.965, 294.247 52.223 M 170.083 49.365 C 170.313 49.565, 171.625 50.265, 173 50.920 C 175.357 52.042, 175.389 52.022, 173.559 50.555 C 171.966 49.279, 168.711 48.164, 170.083 49.365 M 188 58.500 C 193.775 61.469, 198.950 63.897, 199.500 63.897 C 200.050 63.897, 195.775 61.469, 190 58.500 C 184.225 55.531, 179.050 53.103, 178.500 53.103 C 177.950 53.103, 182.225 55.531, 188 58.500 M 124.600 61.750 C 122.913 70.044, 120.850 84.183, 121.266 84.599 C 121.531 84.864, 122.561 79.895, 123.555 73.556 C 124.550 67.217, 125.670 61.533, 126.046 60.926 C 126.516 60.166, 128.007 60.473, 130.825 61.910 C 136.509 64.811, 137.522 64.457, 132 61.500 C 126.195 58.391, 125.276 58.422, 124.600 61.750 M 340 61.500 C 334.478 64.457, 335.491 64.811, 341.175 61.910 C 345.694 59.606, 346.864 60.218, 347.084 65 C 347.148 66.375, 347.595 68.625, 348.078 70 C 348.760 71.941, 348.842 71.605, 348.444 68.500 C 347.071 57.788, 347.017 57.743, 340 61.500 M 262.773 67.396 C 249.570 73.853, 244.401 77.004, 254 72.744 C 261.889 69.242, 277.682 61.095, 276.500 61.136 C 275.950 61.156, 269.773 63.973, 262.773 67.396 M 331 66 C 329.075 67.054, 327.860 67.935, 328.300 67.958 C 329.359 68.014, 335 65.081, 335 64.474 C 335 63.820, 334.941 63.842, 331 66 M 219 73.500 C 225.875 77.018, 231.950 79.896, 232.500 79.896 C 233.050 79.896, 227.875 77.018, 221 73.500 C 214.125 69.982, 208.050 67.104, 207.500 67.104 C 206.950 67.104, 212.125 69.982, 219 73.500 M 316 73 C 310.775 75.694, 306.950 77.898, 307.500 77.898 C 308.050 77.898, 312.775 75.694, 318 73 C 323.225 70.306, 327.050 68.102, 326.500 68.102 C 325.950 68.102, 321.225 70.306, 316 73 M 155 73.500 C 159.675 75.920, 163.950 77.900, 164.500 77.900 C 165.050 77.900, 161.675 75.920, 157 73.500 C 152.325 71.080, 148.050 69.100, 147.500 69.100 C 146.950 69.100, 150.325 71.080, 155 73.500 M 242.500 77.228 C 241.400 77.869, 238.925 78.961, 237 79.653 C 234.894 80.411, 234.296 80.912, 235.500 80.911 C 236.600 80.910, 239.525 79.825, 242 78.500 C 244.475 77.175, 246.050 76.084, 245.500 76.076 C 244.950 76.067, 243.600 76.586, 242.500 77.228 M 101.134 83.085 C 99.283 85.238, 97.976 87, 98.231 87 C 98.836 87, 106 80.040, 106 79.452 C 106 78.192, 104.158 79.567, 101.134 83.085 M 350.233 81.500 C 350.235 83.150, 350.580 85.850, 351 87.500 C 352.058 91.659, 352.105 87.566, 351.057 82.500 C 350.362 79.137, 350.231 78.978, 350.233 81.500 M 367.116 81.750 C 367.191 83.540, 367.395 83.870, 367.700 82.697 C 368.094 81.177, 368.428 81.095, 369.834 82.180 C 371.019 83.095, 370.951 82.822, 369.595 81.233 C 367.164 78.384, 366.976 78.423, 367.116 81.750 M 293 84 C 288.875 86.146, 285.950 87.901, 286.500 87.901 C 287.050 87.901, 290.875 86.146, 295 84 C 299.125 81.854, 302.050 80.099, 301.500 80.099 C 300.950 80.099, 297.125 81.854, 293 84 M 179 85 C 182.025 86.598, 184.950 87.906, 185.500 87.906 C 186.050 87.906, 184.025 86.598, 181 85 C 177.975 83.402, 175.050 82.094, 174.500 82.094 C 173.950 82.094, 175.975 83.402, 179 85 M 371 84.313 C 371 84.485, 372.462 85.948, 374.250 87.563 L 377.500 90.500 374.563 87.250 C 371.825 84.221, 371 83.540, 371 84.313 M 83.148 104.250 C 67.541 122.313, 67.632 121.925, 79 121.772 L 85.500 121.685 78.831 121.093 C 75.163 120.767, 71.915 120.252, 71.613 119.948 C 71.311 119.645, 74.932 114.920, 79.660 109.448 C 84.388 103.977, 90.493 96.912, 93.227 93.750 C 95.961 90.588, 97.971 88, 97.693 88 C 97.415 88, 90.870 95.313, 83.148 104.250 M 188.441 89.445 C 189.509 90.300, 190.821 91, 191.358 91 C 192.628 91, 192.061 90.538, 189 89.080 C 186.643 87.958, 186.611 87.978, 188.441 89.445 M 369.218 93 C 369.228 94.375, 369.580 96.850, 370 98.500 L 370.763 101.500 370.782 98.500 C 370.792 96.850, 370.440 94.375, 370 93 L 369.199 90.500 369.218 93 M 389.465 105.518 C 397.209 114.440, 401.572 120.213, 400.784 120.493 C 400.078 120.744, 396.800 121.100, 393.500 121.285 L 387.500 121.622 394 121.796 C 397.575 121.891, 401.116 121.579, 401.869 121.102 C 402.907 120.445, 400.160 116.688, 390.551 105.617 C 383.572 97.578, 377.638 91, 377.363 91 C 377.088 91, 382.534 97.533, 389.465 105.518 M 118.056 99.556 C 117.381 103.739, 117.029 107.362, 117.273 107.606 C 117.517 107.851, 118.270 104.628, 118.944 100.444 C 119.619 96.261, 119.971 92.638, 119.727 92.394 C 119.483 92.149, 118.730 95.372, 118.056 99.556 M 102.195 95.500 C 102.215 97.150, 102.439 97.704, 102.693 96.731 C 102.947 95.758, 102.930 94.408, 102.656 93.731 C 102.382 93.054, 102.175 93.850, 102.195 95.500 M 270.585 94.658 C 267.271 96.453, 268.127 97.378, 274 98.349 L 277.500 98.927 274.250 97.819 C 270.418 96.512, 270.191 95.696, 273.250 94.220 C 274.488 93.624, 275.050 93.123, 274.500 93.108 C 273.950 93.093, 272.188 93.790, 270.585 94.658 M 201 95.841 C 201 96.304, 193.561 98.616, 184.470 100.978 C 175.378 103.340, 168.139 105.473, 168.383 105.717 C 168.628 105.961, 176.565 104.100, 186.022 101.580 C 195.480 99.061, 203.420 97, 203.668 97 C 203.915 97, 203.840 96.550, 203.500 96 C 202.749 94.785, 201 94.674, 201 95.841 M 353.233 99.500 C 353.235 101.150, 353.580 103.850, 354 105.500 C 355.058 109.659, 355.105 105.566, 354.057 100.500 C 353.362 97.137, 353.231 96.978, 353.233 99.500 M 283.500 101 C 284.600 101.473, 286.175 101.859, 287 101.859 C 287.945 101.859, 287.761 101.542, 286.500 101 C 285.400 100.527, 283.825 100.141, 283 100.141 C 282.055 100.141, 282.239 100.458, 283.500 101 M 298.500 105 C 299.600 105.473, 301.175 105.859, 302 105.859 C 302.945 105.859, 302.761 105.542, 301.500 105 C 300.400 104.527, 298.825 104.141, 298 104.141 C 297.055 104.141, 297.239 104.458, 298.500 105 M 161 107.150 C 159.075 107.683, 149.728 110.183, 140.229 112.705 C 130.730 115.228, 123.132 117.465, 123.344 117.678 C 123.740 118.074, 166.165 107.078, 166.917 106.384 C 167.608 105.746, 164.716 106.121, 161 107.150 M 224.500 108.043 C 222.600 108.819, 222.612 108.863, 224.750 108.930 L 227 109 227 165 C 227 195.800, 226.698 221, 226.329 221 C 225.960 221, 224.925 220.438, 224.030 219.750 C 223.134 219.063, 223.549 219.588, 224.951 220.917 L 227.500 223.335 227.758 165.976 C 227.900 134.428, 227.675 108.304, 227.258 107.922 C 226.841 107.540, 225.600 107.594, 224.500 108.043 M 244.429 108.328 C 244.182 108.972, 244.101 134.025, 244.249 164 L 244.518 218.500 244.759 163.820 L 245 109.139 247.250 108.799 L 249.500 108.459 247.189 107.807 C 245.791 107.413, 244.700 107.618, 244.429 108.328 M 217 110 C 214.990 110.644, 214.892 110.806, 216.500 110.830 C 217.600 110.846, 219.400 110.473, 220.500 110 C 223.048 108.905, 220.419 108.905, 217 110 M 372.090 109.418 C 372.041 109.923, 372.496 113.186, 373.103 116.668 L 374.205 123 379.353 122.820 L 384.500 122.640 379.785 122.266 C 375.221 121.905, 375.050 121.776, 374.437 118.197 C 373.642 113.556, 372.210 108.200, 372.090 109.418 M 433.924 114.500 C 441.085 122.799, 441.555 124.402, 440.094 135.565 C 439.403 140.848, 439.042 145.375, 439.291 145.625 C 439.864 146.197, 442 132.026, 442 127.655 C 442 123.878, 437.834 116.910, 432.939 112.500 C 430.289 110.112, 430.489 110.519, 433.924 114.500 M 98.560 116.202 L 97.782 121.903 92.641 122.297 L 87.500 122.691 92.977 122.595 L 98.453 122.500 99.234 118 C 99.664 115.525, 99.863 112.825, 99.677 112 C 99.491 111.175, 98.988 113.066, 98.560 116.202 M 259.500 112 C 260.600 112.473, 262.175 112.859, 263 112.859 C 263.945 112.859, 263.761 112.542, 262.500 112 C 261.400 111.527, 259.825 111.141, 259 111.141 C 258.055 111.141, 258.239 111.458, 259.500 112 M 334.500 114.570 C 337.250 115.335, 339.950 115.923, 340.500 115.876 C 342.192 115.731, 333.629 113.153, 331.500 113.166 C 330.400 113.173, 331.750 113.805, 334.500 114.570 M 198 115 C 195.990 115.644, 195.892 115.806, 197.500 115.830 C 198.600 115.846, 200.400 115.473, 201.500 115 C 204.048 113.905, 201.419 113.905, 198 115 M 115.116 117.250 C 115.032 119.252, 115.476 119.996, 116.750 119.985 C 117.861 119.975, 118.086 119.701, 117.366 119.235 C 116.742 118.831, 116.007 117.600, 115.732 116.500 C 115.349 114.967, 115.205 115.142, 115.116 117.250 M 356 116.917 C 356 117.971, 355.438 119.060, 354.750 119.338 C 354.003 119.639, 354.205 119.874, 355.250 119.921 C 356.471 119.976, 357 119.244, 357 117.500 C 357 116.125, 356.775 115, 356.500 115 C 356.225 115, 356 115.862, 356 116.917 M 179 120 C 176.990 120.644, 176.892 120.806, 178.500 120.830 C 179.600 120.846, 181.400 120.473, 182.500 120 C 185.048 118.905, 182.419 118.905, 179 120 M 300.500 122.865 C 301.600 123.347, 304.075 124.026, 306 124.375 C 308.403 124.811, 308.873 124.735, 307.500 124.135 C 306.400 123.653, 303.925 122.974, 302 122.625 C 299.597 122.189, 299.127 122.265, 300.500 122.865 M 162.500 124.538 C 158.556 125.902, 158.549 125.913, 162 125.331 C 166.079 124.643, 170.250 123.120, 168 123.140 C 167.175 123.148, 164.700 123.776, 162.500 124.538 M 30.310 129.500 C 30.315 132.800, 30.502 134.029, 30.725 132.232 C 30.947 130.435, 30.943 127.735, 30.715 126.232 C 30.486 124.729, 30.304 126.200, 30.310 129.500 M 317.500 127.528 C 319.700 128.253, 322.400 128.841, 323.500 128.834 C 324.600 128.827, 323.250 128.195, 320.500 127.430 C 314.244 125.689, 312.130 125.758, 317.500 127.528 M 147.500 128.538 C 143.556 129.902, 143.549 129.913, 147 129.331 C 151.079 128.643, 155.250 127.120, 153 127.140 C 152.175 127.148, 149.700 127.776, 147.500 128.538 M 331.500 131 C 332.600 131.473, 334.175 131.859, 335 131.859 C 335.945 131.859, 335.761 131.542, 334.500 131 C 333.400 130.527, 331.825 130.141, 331 130.141 C 330.055 130.141, 330.239 130.458, 331.500 131 M 134 132 C 131.990 132.644, 131.892 132.806, 133.500 132.830 C 134.600 132.846, 136.400 132.473, 137.500 132 C 140.048 130.905, 137.419 130.905, 134 132 M 123.500 137 C 124.495 138.100, 125.481 139, 125.690 139 C 125.899 139, 125.589 138.100, 125 137 C 124.411 135.900, 123.426 135, 122.810 135 C 122.194 135, 122.505 135.900, 123.500 137 M 347.099 137.250 C 345.722 139.492, 345.724 139.493, 347.858 137.595 C 350.150 135.557, 350.446 135, 349.241 135 C 348.823 135, 347.859 136.012, 347.099 137.250 M 31.199 138.500 C 31.171 140.150, 31.509 143.525, 31.949 146 C 32.540 149.319, 32.763 149.713, 32.801 147.500 C 32.829 145.850, 32.491 142.475, 32.051 140 C 31.460 136.681, 31.237 136.287, 31.199 138.500 M 60.160 140.750 C 60.314 144.367, 60.334 144.386, 60.719 141.302 C 61.097 138.282, 61.379 138.084, 65.809 137.733 L 70.500 137.360 65.250 137.180 L 60 137 60.160 140.750 M 396.500 138.058 C 391.236 138.582, 392.192 138.656, 400.354 138.354 L 411.208 137.952 410.666 145.226 C 410.235 151.019, 410.300 151.584, 410.988 148 C 411.463 145.525, 411.885 142.037, 411.926 140.250 C 411.999 137.054, 411.929 137.003, 407.750 137.180 C 405.413 137.279, 400.350 137.674, 396.500 138.058 M 74.776 138.733 C 77.128 138.945, 80.728 138.942, 82.776 138.727 C 84.824 138.512, 82.900 138.339, 78.500 138.343 C 74.100 138.346, 72.424 138.522, 74.776 138.733 M 129 141.500 C 130.292 142.875, 131.574 144, 131.849 144 C 132.124 144, 131.292 142.875, 130 141.500 C 128.708 140.125, 127.426 139, 127.151 139 C 126.876 139, 127.708 140.125, 129 141.500 M 341.924 141.750 L 339.500 144.500 342.250 142.076 C 343.762 140.742, 345 139.505, 345 139.326 C 345 138.541, 344.190 139.180, 341.924 141.750 M 379.074 140.250 C 379.158 141.662, 382.811 149.843, 382.926 148.876 C 382.967 148.532, 382.355 146.422, 381.566 144.187 C 380.487 141.129, 380.425 140.003, 381.316 139.640 C 381.967 139.375, 381.712 139.122, 380.750 139.079 C 379.788 139.036, 379.033 139.563, 379.074 140.250 M 135 146.500 C 136.292 147.875, 137.574 149, 137.849 149 C 138.124 149, 137.292 147.875, 136 146.500 C 134.708 145.125, 133.426 144, 133.151 144 C 132.876 144, 133.708 145.125, 135 146.500 M 335.924 146.750 L 333.500 149.500 336.250 147.076 C 337.762 145.742, 339 144.505, 339 144.326 C 339 143.541, 338.190 144.180, 335.924 146.750 M 61.213 147.500 C 61.192 149.150, 61.526 152.750, 61.954 155.500 C 62.591 159.589, 62.744 159.862, 62.792 157 C 62.825 155.075, 62.491 151.475, 62.051 149 C 61.469 145.728, 61.240 145.319, 61.213 147.500 M 438.195 150.500 C 438.215 152.150, 438.439 152.704, 438.693 151.731 C 438.947 150.758, 438.930 149.408, 438.656 148.731 C 438.382 148.054, 438.175 148.850, 438.195 150.500 M 141 151.500 C 142.292 152.875, 143.574 154, 143.849 154 C 144.124 154, 143.292 152.875, 142 151.500 C 140.708 150.125, 139.426 149, 139.151 149 C 138.876 149, 139.708 150.125, 141 151.500 M 327.106 153.485 C 324.140 155.876, 320.540 159.058, 319.106 160.555 C 317.673 162.052, 320.212 160.249, 324.750 156.549 C 329.288 152.848, 333 149.636, 333 149.410 C 333 148.758, 332.787 148.905, 327.106 153.485 M 115 152.883 C 115 153.369, 115.926 154.009, 117.057 154.305 C 118.745 154.746, 118.903 154.588, 117.935 153.421 C 116.614 151.830, 115 151.535, 115 152.883 M 352.218 154.750 C 350.670 156.262, 350.354 156.713, 351.516 155.750 C 354.264 153.474, 354.773 153.541, 355.294 156.250 C 355.608 157.877, 355.765 157.600, 355.864 155.250 C 355.939 153.463, 355.782 152, 355.516 152 C 355.249 152, 353.765 153.238, 352.218 154.750 M 409.232 157 C 409.232 158.925, 409.438 159.713, 409.689 158.750 C 409.941 157.787, 409.941 156.213, 409.689 155.250 C 409.438 154.287, 409.232 155.075, 409.232 157 M 122 157.500 C 123.292 158.875, 124.574 160, 124.849 160 C 125.124 160, 124.292 158.875, 123 157.500 C 121.708 156.125, 120.426 155, 120.151 155 C 119.876 155, 120.708 156.125, 122 157.500 M 385.114 155.500 C 385.133 156.050, 386.014 158.300, 387.072 160.500 C 388.130 162.700, 388.715 163.375, 388.373 162 C 387.668 159.169, 385.062 153.970, 385.114 155.500 M 436.600 161.600 C 436.225 165.259, 436.122 168.456, 436.371 168.705 C 436.620 168.954, 437.143 166.177, 437.533 162.533 C 437.923 158.890, 438.026 155.693, 437.762 155.429 C 437.498 155.164, 436.975 157.941, 436.600 161.600 M 34.195 160.500 C 34.215 162.150, 34.439 162.704, 34.693 161.731 C 34.947 160.758, 34.930 159.408, 34.656 158.731 C 34.382 158.054, 34.175 158.850, 34.195 160.500 M 344.924 160.750 L 342.500 163.500 345.250 161.076 C 346.762 159.742, 348 158.505, 348 158.326 C 348 157.541, 347.190 158.180, 344.924 160.750 M 353.467 165.467 C 353.077 169.110, 352.974 172.307, 353.238 172.571 C 353.502 172.836, 354.025 170.059, 354.400 166.400 C 354.775 162.741, 354.878 159.544, 354.629 159.295 C 354.380 159.046, 353.857 161.823, 353.467 165.467 M 63.232 165 C 63.232 166.925, 63.438 167.713, 63.689 166.750 C 63.941 165.787, 63.941 164.213, 63.689 163.250 C 63.438 162.287, 63.232 163.075, 63.232 165 M 407.500 168 C 407.109 171.367, 407.002 174.335, 407.262 174.595 C 407.521 174.855, 408.047 172.305, 408.429 168.929 C 408.811 165.552, 408.918 162.584, 408.667 162.334 C 408.416 162.083, 407.891 164.633, 407.500 168 M 158 165.500 C 159.292 166.875, 160.574 168, 160.849 168 C 161.124 168, 160.292 166.875, 159 165.500 C 157.708 164.125, 156.426 163, 156.151 163 C 155.876 163, 156.708 164.125, 158 165.500 M 312.924 165.750 L 310.500 168.500 313.250 166.076 C 314.762 164.742, 316 163.505, 316 163.326 C 316 162.541, 315.190 163.180, 312.924 165.750 M 331.500 171.608 C 326 176.273, 320.825 180.820, 320 181.711 C 318.107 183.757, 332.898 171.761, 338.397 166.791 C 345.824 160.077, 341.690 162.965, 331.500 171.608 M 117.190 165.500 C 117.182 166.600, 117.793 171.325, 118.549 176 L 119.922 184.500 119.406 177.500 C 118.901 170.650, 117.219 161.546, 117.190 165.500 M 99.212 167.434 C 97.537 171.109, 97.696 171.879, 99.575 169.197 C 100.441 167.960, 100.986 166.459, 100.787 165.861 C 100.588 165.263, 99.879 165.970, 99.212 167.434 M 134 167.500 C 135.292 168.875, 136.574 170, 136.849 170 C 137.124 170, 136.292 168.875, 135 167.500 C 133.708 166.125, 132.426 165, 132.151 165 C 131.876 165, 132.708 166.125, 134 167.500 M 370.708 167.155 C 370.402 168.445, 369.924 172.650, 369.645 176.500 L 369.139 183.500 370.320 175.661 C 370.969 171.350, 371.837 168.162, 372.250 168.578 C 373.271 169.606, 373.173 167.821, 372.117 166.155 C 371.479 165.148, 371.125 165.399, 370.708 167.155 M 35.183 168.500 C 35.146 170.150, 35.488 173.300, 35.943 175.500 C 37.032 180.765, 37.125 176.035, 36.051 170 C 35.451 166.626, 35.233 166.250, 35.183 168.500 M 164 170.500 C 165.292 171.875, 166.574 173, 166.849 173 C 167.124 173, 166.292 171.875, 165 170.500 C 163.708 169.125, 162.426 168, 162.151 168 C 161.876 168, 162.708 169.125, 164 170.500 M 306.924 170.750 L 304.500 173.500 307.250 171.076 C 308.762 169.742, 310 168.505, 310 168.326 C 310 167.541, 309.190 168.180, 306.924 170.750 M 64.203 171.500 C 64.188 173.150, 64.526 176.750, 64.954 179.500 C 65.717 184.398, 65.734 184.418, 65.809 180.500 C 65.851 178.300, 65.512 174.700, 65.057 172.500 C 64.349 169.075, 64.226 168.931, 64.203 171.500 M 391.035 170.135 C 391.016 170.485, 391.657 172.285, 392.461 174.135 C 393.264 175.986, 393.923 176.825, 393.925 176 C 393.929 174.559, 391.108 168.834, 391.035 170.135 M 435.195 172.500 C 435.215 174.150, 435.439 174.704, 435.693 173.731 C 435.947 172.758, 435.930 171.408, 435.656 170.731 C 435.382 170.054, 435.175 170.850, 435.195 172.500 M 96.111 175.111 C 95.495 176.878, 95.166 178.499, 95.380 178.713 C 95.594 178.927, 96.273 177.656, 96.889 175.889 C 97.505 174.122, 97.834 172.501, 97.620 172.287 C 97.406 172.073, 96.727 173.344, 96.111 175.111 M 170 175.500 C 171.292 176.875, 172.574 178, 172.849 178 C 173.124 178, 172.292 176.875, 171 175.500 C 169.708 174.125, 168.426 173, 168.151 173 C 167.876 173, 168.708 174.125, 170 175.500 M 283 190.118 C 271.725 199.468, 261.374 208.104, 259.997 209.309 C 251.125 217.074, 246.136 221, 245.142 221 C 244.514 221, 244 221.450, 244 222 C 244 222.550, 244.233 223, 244.517 223 C 245.177 223, 304 173.960, 304 173.410 C 304 172.705, 303.955 172.741, 283 190.118 M 102.058 179.083 C 102.089 180.963, 102.511 184.300, 102.996 186.500 C 103.672 189.574, 103.746 188.880, 103.315 183.500 C 102.718 176.050, 101.962 173.394, 102.058 179.083 M 352.195 178.500 C 352.215 180.150, 352.439 180.704, 352.693 179.731 C 352.947 178.758, 352.930 177.408, 352.656 176.731 C 352.382 176.054, 352.175 176.850, 352.195 178.500 M 406.232 180 C 406.232 181.925, 406.438 182.713, 406.689 181.750 C 406.941 180.787, 406.941 179.213, 406.689 178.250 C 406.438 177.287, 406.232 178.075, 406.232 180 M 433.219 186.400 C 432.530 191.845, 432.149 196.483, 432.372 196.706 C 432.983 197.316, 435.235 180.458, 434.826 178.340 C 434.630 177.328, 433.907 180.955, 433.219 186.400 M 174 178.257 C 174 178.590, 181.537 185.122, 190.750 192.774 C 199.963 200.426, 208.963 207.922, 210.750 209.432 C 212.537 210.942, 214 211.936, 214 211.642 C 214 211.347, 206.012 204.485, 196.250 196.394 C 186.488 188.303, 177.488 180.776, 176.250 179.667 C 175.012 178.558, 174 177.924, 174 178.257 M 395.035 180.135 C 395.016 180.485, 395.657 182.285, 396.461 184.135 C 397.264 185.986, 397.923 186.825, 397.925 186 C 397.929 184.559, 395.108 178.834, 395.035 180.135 M 151.784 182.177 C 153.336 184.123, 168 196.331, 168 195.677 C 168 195.423, 164.063 191.919, 159.250 187.891 C 154.438 183.863, 151.078 181.291, 151.784 182.177 M 314.924 185.750 L 312.500 188.500 315.250 186.076 C 316.762 184.742, 318 183.505, 318 183.326 C 318 182.541, 317.190 183.180, 314.924 185.750 M 351.195 185.500 C 351.215 187.150, 351.439 187.704, 351.693 186.731 C 351.947 185.758, 351.930 184.408, 351.656 183.731 C 351.382 183.054, 351.175 183.850, 351.195 185.500 M 405.195 187.500 C 405.215 189.150, 405.439 189.704, 405.693 188.731 C 405.947 187.758, 405.930 186.408, 405.656 185.731 C 405.382 185.054, 405.175 185.850, 405.195 187.500 M 66.609 191.500 C 67.289 199.503, 67.941 201.702, 69.094 199.882 C 70.168 198.187, 70.282 196.382, 69.250 197.423 C 68.838 197.839, 67.960 195.327, 67.300 191.840 L 66.099 185.500 66.609 191.500 M 120.232 189 C 120.232 190.925, 120.438 191.713, 120.689 190.750 C 120.941 189.787, 120.941 188.213, 120.689 187.250 C 120.438 186.287, 120.232 187.075, 120.232 189 M 38.199 190.500 C 38.171 192.150, 38.509 195.525, 38.949 198 C 39.540 201.319, 39.763 201.713, 39.801 199.500 C 39.829 197.850, 39.491 194.475, 39.051 192 C 38.460 188.681, 38.237 188.287, 38.199 190.500 M 308.924 190.750 L 306.500 193.500 309.250 191.076 C 310.762 189.742, 312 188.505, 312 188.326 C 312 187.541, 311.190 188.180, 308.924 190.750 M 350.252 192.500 C 350.263 194.700, 350.468 195.482, 350.707 194.238 C 350.946 192.994, 350.937 191.194, 350.687 190.238 C 350.437 189.282, 350.241 190.300, 350.252 192.500 M 366.130 201.130 C 365.439 206.672, 365.073 211.406, 365.318 211.651 C 365.562 211.896, 366.339 207.572, 367.043 202.043 C 367.748 196.515, 368.114 191.780, 367.856 191.523 C 367.599 191.265, 366.822 195.589, 366.130 201.130 M 404.116 194.167 C 404.052 196.183, 403.564 197.983, 403.032 198.167 C 402.449 198.367, 402.417 199.069, 402.953 199.931 C 403.607 200.984, 404.019 200.417, 404.513 197.781 C 404.883 195.811, 404.971 193.367, 404.709 192.350 C 404.446 191.332, 404.180 192.150, 404.116 194.167 M 121.685 199.500 C 121.994 203.350, 122.416 206.688, 122.623 206.917 C 123.318 207.685, 122.894 200.543, 122.004 196.500 C 121.328 193.426, 121.254 194.120, 121.685 199.500 M 302.924 195.750 L 300.500 198.500 303.250 196.076 C 304.762 194.742, 306 193.505, 306 193.326 C 306 192.541, 305.190 193.180, 302.924 195.750 M 87.111 198.111 C 86.495 199.878, 86.166 201.499, 86.380 201.713 C 86.594 201.927, 87.273 200.656, 87.889 198.889 C 88.505 197.122, 88.834 195.501, 88.620 195.287 C 88.406 195.073, 87.727 196.344, 87.111 198.111 M 171 198.500 C 172.292 199.875, 173.574 201, 173.849 201 C 174.124 201, 173.292 199.875, 172 198.500 C 170.708 197.125, 169.426 196, 169.151 196 C 168.876 196, 169.708 197.125, 171 198.500 M 296.924 200.750 L 294.500 203.500 297.250 201.076 C 298.762 199.742, 300 198.505, 300 198.326 C 300 197.541, 299.190 198.180, 296.924 200.750 M 349.232 201 C 349.232 202.925, 349.438 203.713, 349.689 202.750 C 349.941 201.787, 349.941 200.213, 349.689 199.250 C 349.438 198.287, 349.232 199.075, 349.232 201 M 105.208 202 C 105.175 203.925, 105.509 207.525, 105.949 210 C 107.031 216.079, 107.116 210.369, 106.046 203.500 C 105.409 199.411, 105.256 199.138, 105.208 202 M 430.043 210.043 C 429.339 215.572, 428.968 220.301, 429.219 220.552 C 429.470 220.803, 430.252 216.485, 430.957 210.957 C 431.661 205.428, 432.032 200.699, 431.781 200.448 C 431.530 200.197, 430.748 204.515, 430.043 210.043 M 177 203.500 C 178.292 204.875, 179.574 206, 179.849 206 C 180.124 206, 179.292 204.875, 178 203.500 C 176.708 202.125, 175.426 201, 175.151 201 C 174.876 201, 175.708 202.125, 177 203.500 M 290.924 205.670 L 288.500 208.339 291.219 206.420 C 292.714 205.364, 293.951 204.162, 293.969 203.750 C 294.020 202.519, 293.472 202.864, 290.924 205.670 M 183 208.500 C 184.292 209.875, 185.574 211, 185.849 211 C 186.124 211, 185.292 209.875, 184 208.500 C 182.708 207.125, 181.426 206, 181.151 206 C 180.876 206, 181.708 207.125, 183 208.500 M 348.195 208.500 C 348.215 210.150, 348.439 210.704, 348.693 209.731 C 348.947 208.758, 348.930 207.408, 348.656 206.731 C 348.382 206.054, 348.175 206.850, 348.195 208.500 M 81.667 212.167 C 80.762 214.470, 80.185 216.519, 80.386 216.719 C 80.586 216.919, 81.500 215.208, 82.417 212.917 C 83.334 210.625, 83.910 208.577, 83.698 208.364 C 83.485 208.152, 82.572 209.863, 81.667 212.167 M 284.924 210.750 L 282.500 213.500 285.250 211.076 C 286.762 209.742, 288 208.505, 288 208.326 C 288 207.541, 287.190 208.180, 284.924 210.750 M 123.195 211.500 C 123.215 213.150, 123.439 213.704, 123.693 212.731 C 123.947 211.758, 123.930 210.408, 123.656 209.731 C 123.382 209.054, 123.175 209.850, 123.195 211.500 M 41.252 213.500 C 41.263 215.700, 41.468 216.482, 41.707 215.238 C 41.946 213.994, 41.937 212.194, 41.687 211.238 C 41.437 210.282, 41.241 211.300, 41.252 213.500 M 346.533 218.533 C 346.143 222.177, 346.034 225.367, 346.291 225.624 C 346.547 225.881, 347.077 223.110, 347.467 219.467 C 347.857 215.823, 347.966 212.633, 347.709 212.376 C 347.453 212.119, 346.923 214.890, 346.533 218.533 M 274.500 219.105 C 265.961 226.413, 262.993 229.497, 268.719 225.112 C 273.489 221.459, 282.761 213.070, 282 213.097 C 281.725 213.106, 278.350 215.810, 274.500 219.105 M 364.232 217 C 364.232 218.925, 364.438 219.713, 364.689 218.750 C 364.941 217.787, 364.941 216.213, 364.689 215.250 C 364.438 214.287, 364.232 215.075, 364.232 217 M 124.685 222.500 C 124.994 226.350, 125.416 229.688, 125.623 229.917 C 126.318 230.685, 125.894 223.543, 125.004 219.500 C 124.328 216.426, 124.254 217.120, 124.685 222.500 M 42.118 221.083 C 42.183 222.963, 42.603 225.850, 43.051 227.500 C 43.587 229.473, 43.674 228.445, 43.308 224.500 C 42.693 217.887, 41.932 215.702, 42.118 221.083 M 201 223.500 C 202.292 224.875, 203.574 226, 203.849 226 C 204.124 226, 203.292 224.875, 202 223.500 C 200.708 222.125, 199.426 221, 199.151 221 C 198.876 221, 199.708 222.125, 201 223.500 M 362.600 227.600 C 362.225 231.259, 362.122 234.456, 362.371 234.705 C 362.620 234.954, 363.143 232.177, 363.533 228.533 C 363.923 224.890, 364.026 221.693, 363.762 221.429 C 363.498 221.164, 362.975 223.941, 362.600 227.600 M 108.252 225.500 C 108.263 227.700, 108.468 228.482, 108.707 227.238 C 108.946 225.994, 108.937 224.194, 108.687 223.238 C 108.437 222.282, 108.241 223.300, 108.252 225.500 M 427.533 228.533 C 427.143 232.177, 427.034 235.367, 427.291 235.624 C 427.547 235.881, 428.077 233.110, 428.467 229.467 C 428.857 225.823, 428.966 222.633, 428.709 222.376 C 428.453 222.119, 427.923 224.890, 427.533 228.533 M 74.644 230.261 C 72.319 236.351, 72.699 237.510, 75.090 231.618 C 76.179 228.933, 76.894 226.561, 76.679 226.346 C 76.465 226.131, 75.549 227.893, 74.644 230.261 M 260.490 230.833 C 258.835 232.300, 255.685 234.980, 253.491 236.788 L 249.500 240.077 251.934 241.931 C 253.273 242.951, 255.748 244.542, 257.434 245.466 C 260.434 247.110, 260.453 247.107, 258.285 245.323 C 257.067 244.320, 255.042 242.723, 253.785 241.773 L 251.500 240.045 254.521 237.273 C 256.183 235.748, 259.052 233.244, 260.897 231.709 C 262.742 230.174, 264.082 228.748, 263.875 228.542 C 263.668 228.335, 262.145 229.366, 260.490 230.833 M 396.539 230 C 397.993 235.608, 398.138 237.797, 397.096 238.441 C 396.493 238.813, 396 239.597, 396 240.181 C 396 240.852, 396.554 240.785, 397.500 240 C 399.427 238.401, 399.407 235.110, 397.445 230.865 C 396.449 228.708, 396.123 228.398, 396.539 230 M 345.195 231.500 C 345.215 233.150, 345.439 233.704, 345.693 232.731 C 345.947 231.758, 345.930 230.408, 345.656 229.731 C 345.382 229.054, 345.175 229.850, 345.195 231.500 M 109.183 232.500 C 109.146 234.150, 109.488 237.300, 109.943 239.500 C 111.032 244.765, 111.125 240.035, 110.051 234 C 109.451 230.626, 109.233 230.250, 109.183 232.500 M 126.232 234 C 126.232 235.925, 126.438 236.713, 126.689 235.750 C 126.941 234.787, 126.941 233.213, 126.689 232.250 C 126.438 231.287, 126.232 232.075, 126.232 234 M 44.195 234.500 C 44.215 236.150, 44.439 236.704, 44.693 235.731 C 44.947 234.758, 44.930 233.408, 44.656 232.731 C 44.382 232.054, 44.175 232.850, 44.195 234.500 M 343.467 241.467 C 343.077 245.110, 342.982 248.316, 343.257 248.591 C 343.532 248.866, 344.077 246.110, 344.467 242.467 C 344.857 238.823, 344.951 235.618, 344.676 235.343 C 344.401 235.068, 343.857 237.823, 343.467 241.467 M 218.438 237.779 C 220.337 240.028, 220.337 240.076, 218.431 241.448 C 217.369 242.212, 215.600 243.596, 214.500 244.524 C 212.760 245.992, 212.890 245.982, 215.500 244.452 C 222.348 240.437, 222.265 240.582, 219.246 237.914 C 216.689 235.655, 216.637 235.646, 218.438 237.779 M 73 237.713 C 73 238.192, 75.025 240.571, 77.500 243 C 79.975 245.429, 82 247.062, 82 246.629 C 82 246.196, 79.975 243.817, 77.500 241.342 C 75.025 238.867, 73 237.234, 73 237.713 M 361.195 239.500 C 361.215 241.150, 361.439 241.704, 361.693 240.731 C 361.947 239.758, 361.930 238.408, 361.656 237.731 C 361.382 237.054, 361.175 237.850, 361.195 239.500 M 426.232 240 C 426.232 241.925, 426.438 242.713, 426.689 241.750 C 426.941 240.787, 426.941 239.213, 426.689 238.250 C 426.438 237.287, 426.232 238.075, 426.232 240 M 45.118 242.782 C 45.003 245.984, 47.315 253, 48.484 253 C 48.807 253, 48.559 252.045, 47.935 250.878 C 47.310 249.711, 46.447 246.674, 46.017 244.128 C 45.351 240.185, 45.218 239.985, 45.118 242.782 M 127.195 242.500 C 127.215 244.150, 127.439 244.704, 127.693 243.731 C 127.947 242.758, 127.930 241.408, 127.656 240.731 C 127.382 240.054, 127.175 240.850, 127.195 242.500 M 381.750 253.608 C 375.837 259.421, 371 264.467, 371 264.822 C 371 265.176, 375.950 260.531, 382 254.500 C 392.104 244.427, 393.475 242.963, 392.750 243.019 C 392.613 243.030, 387.663 247.795, 381.750 253.608 M 359.219 253.400 C 358.530 258.845, 358.149 263.483, 358.372 263.706 C 358.983 264.316, 361.235 247.458, 360.826 245.340 C 360.630 244.328, 359.907 247.955, 359.219 253.400 M 111.195 247.500 C 111.215 249.150, 111.439 249.704, 111.693 248.731 C 111.947 247.758, 111.930 246.408, 111.656 245.731 C 111.382 245.054, 111.175 245.850, 111.195 247.500 M 128.232 249 C 128.232 250.925, 128.438 251.713, 128.689 250.750 C 128.941 249.787, 128.941 248.213, 128.689 247.250 C 128.438 246.287, 128.232 247.075, 128.232 249 M 208.861 248.059 L 206.500 250.119 209.250 248.444 C 210.762 247.523, 212 246.597, 212 246.385 C 212 245.604, 211.165 246.050, 208.861 248.059 M 262.934 248.810 C 264.273 249.897, 266.748 251.547, 268.434 252.476 L 271.500 254.167 269.066 252.190 C 267.727 251.103, 265.252 249.453, 263.566 248.524 L 260.500 246.833 262.934 248.810 M 94.984 259.268 C 101.300 265.721, 106.591 271, 106.742 271 C 107.715 271, 103.165 266.175, 94.032 257.518 L 83.500 247.536 94.984 259.268 M 200.750 253.021 C 198.137 254.661, 196 256.224, 196 256.493 C 196 256.761, 198.250 255.597, 201 253.905 C 203.750 252.213, 206 250.642, 206 250.414 C 206 249.756, 205.758 249.876, 200.750 253.021 M 342.232 254 C 342.232 255.925, 342.438 256.712, 342.689 255.750 C 342.941 254.787, 342.941 253.213, 342.689 252.250 C 342.438 251.287, 342.232 252.075, 342.232 254 M 389 285.523 C 364.768 309.003, 351.821 320.790, 345.500 325.128 C 336.889 331.036, 332.665 334.301, 336 332.470 C 345.370 327.325, 356.535 317.728, 385.500 289.921 C 403.650 272.496, 419.822 256.835, 421.437 255.120 C 429.419 246.641, 420.462 255.037, 389 285.523 M 112.183 255.500 C 112.146 257.150, 112.488 260.300, 112.943 262.500 C 114.032 267.765, 114.125 263.035, 113.051 257 C 112.451 253.626, 112.233 253.250, 112.183 255.500 M 129.252 256.500 C 129.263 258.700, 129.468 259.482, 129.707 258.238 C 129.946 256.994, 129.937 255.194, 129.687 254.238 C 129.437 253.282, 129.241 254.300, 129.252 256.500 M 244.079 258.227 C 244.122 259.477, 244.384 259.941, 244.660 259.258 C 245.024 258.355, 245.685 258.296, 247.081 259.043 C 249.845 260.523, 249.444 259.521, 246.500 257.592 C 244.084 256.009, 244.003 256.030, 244.079 258.227 M 275 256.350 C 275 256.581, 276.180 257.543, 277.623 258.489 C 279.066 259.434, 279.941 259.713, 279.567 259.109 C 278.854 257.955, 275 255.626, 275 256.350 M 183.529 264.023 C 177.495 267.883, 172.095 271.542, 171.529 272.153 C 170.963 272.765, 173.200 271.554, 176.500 269.462 C 179.800 267.371, 185.313 263.886, 188.750 261.718 C 194.121 258.331, 195.825 256.992, 194.750 257.003 C 194.613 257.004, 189.563 260.163, 183.529 264.023 M 224.507 257.989 C 224.157 258.555, 224.558 258.723, 225.448 258.382 C 226.838 257.848, 227 262.971, 227 307.393 C 227 341.641, 226.672 357, 225.941 357 C 225.359 357, 225.160 357.450, 225.500 358 C 227.687 361.539, 228 355.286, 228 308 C 228 264.262, 227.795 257, 226.559 257 C 225.766 257, 224.843 257.445, 224.507 257.989 M 54.874 259.250 C 56.780 261.684, 98 301.349, 98 300.749 C 98 300.480, 87.988 290.640, 75.752 278.880 C 63.516 267.121, 54.121 258.287, 54.874 259.250 M 341.195 261.500 C 341.215 263.150, 341.439 263.704, 341.693 262.731 C 341.947 261.758, 341.930 260.408, 341.656 259.731 C 341.382 259.054, 341.175 259.850, 341.195 261.500 M 215.482 263.640 C 210.379 267.023, 208.581 268.808, 212.566 266.535 C 216.074 264.534, 220.754 261.055, 219.982 261.022 C 219.697 261.010, 217.672 262.188, 215.482 263.640 M 130.195 265.500 C 130.215 267.150, 130.439 267.704, 130.693 266.731 C 130.947 265.758, 130.930 264.408, 130.656 263.731 C 130.382 263.054, 130.175 263.850, 130.195 265.500 M 287.934 264.794 C 291.271 267.525, 296.997 270.763, 295 268.791 C 294.175 267.975, 291.700 266.295, 289.500 265.055 C 286.128 263.156, 285.882 263.115, 287.934 264.794 M 340.252 268.500 C 340.263 270.700, 340.468 271.482, 340.707 270.238 C 340.946 268.994, 340.937 267.194, 340.687 266.238 C 340.437 265.282, 340.241 266.300, 340.252 268.500 M 363.517 270.983 C 359.396 275.148, 357.359 276.591, 356.814 275.733 C 356.314 274.946, 356.025 275.395, 356.015 276.973 C 356.002 279.173, 356.774 278.678, 363 272.500 C 366.850 268.680, 370 265.429, 370 265.277 C 370 264.558, 369.027 265.414, 363.517 270.983 M 262.500 268.518 C 263.600 269.414, 265.400 270.588, 266.500 271.128 L 268.500 272.110 266.500 270.482 C 265.400 269.586, 263.600 268.412, 262.500 267.872 L 260.500 266.890 262.500 268.518 M 204.482 270.640 C 199.379 274.023, 197.581 275.808, 201.566 273.535 C 205.074 271.534, 209.754 268.055, 208.982 268.022 C 208.697 268.010, 206.672 269.188, 204.482 270.640 M 131.190 271 C 131.169 272.375, 131.761 277.325, 132.507 282 L 133.863 290.500 133.335 283.500 C 132.747 275.707, 131.254 267.002, 131.190 271 M 297.500 270.746 C 298.939 272.242, 310 279.157, 310 278.561 C 310 278.286, 307.637 276.560, 304.750 274.724 C 297.714 270.251, 296.252 269.449, 297.500 270.746 M 166.250 275.115 C 162.841 277.298, 161.738 278.764, 164.750 277.108 C 167.044 275.847, 170.639 273.068, 170 273.049 C 169.725 273.040, 168.037 273.970, 166.250 275.115 M 339.232 277 C 339.232 278.925, 339.438 279.712, 339.689 278.750 C 339.941 277.788, 339.941 276.212, 339.689 275.250 C 339.438 274.288, 339.232 275.075, 339.232 277 M 191.987 278.634 C 186.031 282.579, 182.623 285.526, 187.500 282.514 C 195.689 277.458, 199.037 275, 197.737 275 C 197.592 275, 195.004 276.635, 191.987 278.634 M 113 276.544 C 113 276.660, 113.675 277.315, 114.500 278 C 115.717 279.010, 116 278.970, 116 277.789 C 116 276.988, 115.325 276.333, 114.500 276.333 C 113.675 276.333, 113 276.428, 113 276.544 M 158.861 280.059 L 156.500 282.119 159.250 280.444 C 160.762 279.523, 162 278.597, 162 278.385 C 162 277.604, 161.165 278.050, 158.861 280.059 M 311.500 279.710 C 312.050 280.261, 315.875 282.866, 320 285.497 C 324.125 288.129, 328.512 290.946, 329.750 291.756 C 330.988 292.567, 332 293, 332 292.718 C 332 292.436, 327.837 289.533, 322.750 286.266 C 312.261 279.530, 310.017 278.222, 311.500 279.710 M 284 282.246 C 285.866 284.044, 293 288.342, 293 287.667 C 293 287.395, 290.637 285.738, 287.750 283.986 C 284.863 282.233, 283.175 281.450, 284 282.246 M 150.696 284.978 C 148.113 286.616, 146 288.187, 146 288.469 C 146 288.751, 148.250 287.597, 151 285.905 C 155.338 283.236, 156.824 282, 155.696 282 C 155.528 282, 153.278 283.340, 150.696 284.978 M 338.195 284.500 C 338.215 286.150, 338.439 286.704, 338.693 285.731 C 338.947 284.758, 338.930 283.408, 338.656 282.731 C 338.382 282.054, 338.175 282.850, 338.195 284.500 M 177.987 287.634 C 172.031 291.579, 168.623 294.526, 173.500 291.514 C 181.689 286.458, 185.037 284, 183.737 284 C 183.592 284, 181.004 285.635, 177.987 287.634 M 337.160 290.867 C 337.019 293.830, 336.731 294.165, 334.750 293.666 C 332.574 293.118, 332.564 293.147, 334.446 294.553 C 337.010 296.469, 338.247 295.084, 337.733 290.877 L 337.320 287.500 337.160 290.867 M 140.156 291.696 C 136.575 293.854, 135.656 294.067, 134.921 292.907 C 134.246 291.841, 134.027 292.045, 134.015 293.750 C 134.007 294.988, 134.218 296, 134.485 296 C 135.233 296, 145 289.883, 145 289.414 C 145 288.796, 144.855 288.864, 140.156 291.696 M 301.500 293.518 C 302.600 294.414, 304.400 295.588, 305.500 296.128 L 307.500 297.110 305.500 295.482 C 304.400 294.586, 302.600 293.412, 301.500 292.872 L 299.500 291.890 301.500 293.518 M 166.250 295.115 C 162.841 297.298, 161.738 298.764, 164.750 297.108 C 167.044 295.847, 170.639 293.068, 170 293.049 C 169.725 293.040, 168.037 293.970, 166.250 295.115 M 312.500 300.518 C 313.600 301.414, 315.400 302.588, 316.500 303.128 L 318.500 304.110 316.500 302.482 C 315.400 301.586, 313.600 300.412, 312.500 299.872 L 310.500 298.890 312.500 300.518 M 152.250 304.115 C 148.794 306.328, 148.280 307.437, 150.170 308.605 C 150.957 309.091, 151.131 308.783, 150.701 307.664 C 150.350 306.749, 150.386 305.990, 150.781 305.978 C 151.597 305.953, 156.771 302.047, 156 302.039 C 155.725 302.036, 154.037 302.970, 152.250 304.115 M 109.500 312 C 113.874 316.400, 117.678 320, 117.953 320 C 118.228 320, 114.874 316.400, 110.500 312 C 106.126 307.600, 102.322 304, 102.047 304 C 101.772 304, 105.126 307.600, 109.500 312 M 319.872 305.339 C 321.036 306.747, 321.036 307.253, 319.872 308.661 C 318.616 310.181, 318.691 310.203, 320.750 308.920 C 321.988 308.149, 323 307.285, 323 307 C 323 306.715, 321.988 305.851, 320.750 305.080 C 318.691 303.797, 318.616 303.819, 319.872 305.339 M 152 309.350 C 152 309.581, 153.180 310.543, 154.623 311.489 C 156.066 312.434, 156.941 312.713, 156.567 312.109 C 155.854 310.955, 152 308.626, 152 309.350 M 310.739 314.521 C 307.033 317.008, 304 319.261, 304 319.529 C 304 319.797, 307.150 317.921, 311 315.361 C 317.124 311.289, 318.744 310, 317.739 310 C 317.596 310, 314.446 312.034, 310.739 314.521 M 158 313.350 C 158 313.581, 159.180 314.543, 160.623 315.489 C 162.066 316.434, 162.941 316.713, 162.567 316.109 C 161.854 314.955, 158 312.626, 158 313.350 M 164 317.350 C 164 317.581, 165.180 318.543, 166.623 319.489 C 168.066 320.434, 168.941 320.713, 168.567 320.109 C 167.854 318.955, 164 316.626, 164 317.350 M 285 331.553 C 268.620 342.362, 259.900 348.703, 270 342.461 C 276.213 338.621, 301.285 321.940, 302.450 320.872 C 304.969 318.560, 301.117 320.918, 285 331.553 M 120.433 321.891 C 121.146 323.045, 125 325.374, 125 324.650 C 125 324.419, 123.820 323.457, 122.377 322.511 C 120.934 321.566, 120.059 321.287, 120.433 321.891 M 171.500 322.518 C 172.600 323.414, 174.400 324.588, 175.500 325.128 L 177.500 326.110 175.500 324.482 C 174.400 323.586, 172.600 322.412, 171.500 321.872 L 169.500 320.890 171.500 322.518 M 126 325.448 C 126 325.723, 129.938 328.580, 134.750 331.795 C 144.487 338.302, 147.043 339.844, 145.500 338.280 C 143.929 336.688, 126 324.890, 126 325.448 M 181 328.350 C 181 328.581, 182.180 329.543, 183.623 330.489 C 185.066 331.434, 185.941 331.713, 185.567 331.109 C 184.854 329.955, 181 327.626, 181 328.350 M 331 335.089 C 328.846 336.851, 328.804 336.986, 330.694 336.062 C 331.901 335.472, 333.165 334.542, 333.503 333.995 C 334.406 332.534, 333.800 332.799, 331 335.089 M 190.500 334.724 C 192.661 336.921, 224 357.347, 224 356.558 C 224 356.300, 216.912 351.427, 208.250 345.728 C 191.381 334.629, 188.887 333.083, 190.500 334.724 M 325 339.089 C 322.846 340.851, 322.804 340.986, 324.694 340.062 C 325.901 339.472, 327.165 338.542, 327.503 337.995 C 328.406 336.534, 327.800 336.799, 325 339.089 M 147.433 339.891 C 148.146 341.045, 152 343.374, 152 342.650 C 152 342.419, 150.820 341.457, 149.377 340.511 C 147.934 339.566, 147.059 339.287, 147.433 339.891 M 308.492 349.627 C 299.365 355.680, 294.101 359.614, 298 357.468 C 300.310 356.197, 317.377 344.845, 318.450 343.867 C 320.799 341.723, 317.749 343.488, 308.492 349.627 M 261.861 347.059 L 259.500 349.119 262.250 347.444 C 263.762 346.523, 265 345.597, 265 345.385 C 265 344.604, 264.165 345.050, 261.861 347.059 M 159.433 347.891 C 160.146 349.045, 164 351.374, 164 350.650 C 164 350.419, 162.820 349.457, 161.377 348.511 C 159.934 347.566, 159.059 347.287, 159.433 347.891 M 255.861 351.059 L 253.500 353.119 256.250 351.444 C 257.762 350.523, 259 349.597, 259 349.385 C 259 348.604, 258.165 349.050, 255.861 351.059 M 165.433 351.891 C 166.146 353.045, 170 355.374, 170 354.650 C 170 354.419, 168.820 353.457, 167.377 352.511 C 165.934 351.566, 165.059 351.287, 165.433 351.891 M 248 356 C 245.525 357.645, 243.847 358.993, 244.271 358.996 C 245.143 359.001, 253 353.934, 253 353.367 C 253 352.731, 252.606 352.938, 248 356 M 293 360.089 C 290.846 361.851, 290.804 361.986, 292.694 361.062 C 293.901 360.472, 295.165 359.542, 295.503 358.995 C 296.406 357.534, 295.800 357.799, 293 360.089 M 180 361.252 C 180 361.517, 183.037 363.747, 186.750 366.207 C 194.772 371.523, 196 372.252, 196 371.701 C 196 371.333, 191.820 368.448, 182.750 362.556 C 181.238 361.574, 180 360.987, 180 361.252 M 287 364.089 C 284.846 365.851, 284.804 365.986, 286.694 365.062 C 287.901 364.472, 289.165 363.542, 289.503 362.995 C 290.406 361.534, 289.800 361.799, 287 364.089 M 280.203 368.429 C 275.558 371.713, 274.905 372.652, 278.827 370.406 C 280.657 369.357, 282.624 367.938, 283.199 367.250 C 284.677 365.483, 283.984 365.756, 280.203 368.429 M 197.433 372.891 C 198.146 374.045, 202 376.374, 202 375.650 C 202 375.419, 200.820 374.457, 199.377 373.511 C 197.934 372.566, 197.059 372.287, 197.433 372.891 M 257.813 383.112 C 239.584 395.195, 236.021 396.530, 229.913 393.561 C 226.953 392.123, 226.765 392.114, 228.500 393.495 C 231.431 395.828, 234.911 396.441, 238.940 395.334 C 243.194 394.164, 277.667 371.727, 274.750 372.026 C 274.613 372.040, 266.991 377.029, 257.813 383.112 M 203.433 376.891 C 204.146 378.045, 208 380.374, 208 379.650 C 208 379.419, 206.820 378.457, 205.377 377.511 C 203.934 376.566, 203.059 376.287, 203.433 376.891 M 209.433 380.891 C 210.146 382.045, 214 384.374, 214 383.650 C 214 383.419, 212.820 382.457, 211.377 381.511 C 209.934 380.566, 209.059 380.287, 209.433 380.891" stroke="none" fill="#7f8081" fill-rule="evenodd"/><path d="M 114.500 27.966 C 111.875 29.067, 108.614 32.572, 87.482 57 C 77.728 68.275, 61.554 86.952, 51.541 98.504 C 41.527 110.056, 32.809 120.489, 32.167 121.688 C 31.525 122.887, 31.002 125.811, 31.003 128.184 C 31.010 136.015, 46.634 248.426, 48.091 251.124 C 48.866 252.558, 64.800 268.454, 83.500 286.448 L 117.500 319.166 172.208 355.535 C 202.297 375.539, 228.358 392.651, 230.121 393.562 C 237.261 397.255, 236.883 397.475, 328.709 336.295 L 353.918 319.500 388.881 285.725 C 422.379 253.366, 423.886 251.752, 424.821 247.225 C 425.357 244.626, 429.309 216.304, 433.601 184.287 C 441.022 128.933, 441.328 125.912, 439.819 122.787 C 437.125 117.208, 360.419 29.416, 357.001 28.001 C 355.330 27.308, 352.283 26.984, 350.231 27.280 C 348.179 27.576, 321.855 39.785, 291.733 54.409 C 261.611 69.034, 236.425 81, 235.764 81 C 235.104 81, 209.469 68.850, 178.798 54 C 122.793 26.884, 119.885 25.707, 114.500 27.966 M 124.605 61.750 C 122.245 73.469, 114.877 119.211, 115.284 119.617 C 115.744 120.078, 197.373 98.920, 202.418 97.032 C 204.318 96.322, 204.195 96.121, 201 94.731 C 199.075 93.893, 181.584 85.511, 162.132 76.104 C 142.679 66.697, 126.402 59, 125.961 59 C 125.520 59, 124.910 60.237, 124.605 61.750 M 322 70.058 C 309.625 76.056, 292.384 84.392, 283.686 88.584 C 274.988 92.775, 268.065 96.399, 268.302 96.636 C 268.752 97.085, 323.731 111.867, 344.371 117.088 C 350.900 118.740, 356.467 119.867, 356.741 119.593 C 357.164 119.169, 348.870 67.832, 347.315 61.250 C 347.022 60.013, 346.269 59.035, 345.642 59.077 C 345.014 59.119, 334.375 64.060, 322 70.058 M 86.817 99.821 C 72.827 116.180, 69.485 120.631, 70.817 121.125 C 71.742 121.469, 78.321 121.919, 85.434 122.125 L 98.369 122.500 101.582 103.637 C 103.349 93.262, 105.055 83.474, 105.373 81.887 C 105.690 80.299, 105.624 79.032, 105.225 79.071 C 104.826 79.110, 96.542 88.447, 86.817 99.821 M 367 79.935 C 367 81.652, 374.067 122.401, 374.428 122.761 C 375.003 123.337, 400.949 121.649, 402.058 120.964 C 402.843 120.479, 397.719 113.824, 386.968 101.365 C 366.766 77.953, 367 78.204, 367 79.935 M 175.500 120.985 C 147.450 128.488, 123.898 134.837, 123.162 135.093 C 122.377 135.366, 127.551 140.307, 135.661 147.029 C 143.271 153.338, 167.049 173.078, 188.499 190.895 L 227.500 223.290 227.758 165.953 C 227.900 134.418, 227.675 108.330, 227.258 107.980 C 226.841 107.630, 203.550 113.482, 175.500 120.985 M 244.502 107.831 C 243.644 108.689, 243.952 223.186, 244.812 222.833 C 245.258 222.650, 269.126 202.942, 297.852 179.037 C 343.985 140.646, 349.820 135.478, 347.855 134.751 C 346.632 134.298, 333.676 130.801, 319.065 126.979 C 304.454 123.158, 281.813 117.173, 268.752 113.680 C 255.691 110.187, 244.778 107.555, 244.502 107.831 M 60 138.481 C 60 142.175, 67.119 197.607, 67.815 199.333 C 68.344 200.646, 71.875 192.834, 80.243 171.833 C 86.672 155.700, 92.202 141.761, 92.532 140.858 C 93.179 139.084, 91.392 138.813, 69.750 137.399 C 60.951 136.824, 60 136.930, 60 138.481 M 391.503 138.224 C 384.905 138.739, 379.338 139.329, 379.132 139.535 C 378.925 139.741, 384.266 153.676, 391 170.500 C 397.734 187.324, 403.455 200.878, 403.713 200.620 C 404.242 200.091, 411.978 142.743, 411.991 139.250 C 412.001 136.657, 411.753 136.644, 391.503 138.224 M 115.447 154.152 C 115.740 155.443, 120.075 187.775, 125.079 226 C 130.083 264.225, 134.328 295.653, 134.512 295.840 C 134.768 296.100, 211.533 247.449, 220.289 241.477 C 221.872 240.397, 216.040 235.219, 169.496 196.379 C 140.576 172.245, 116.464 152.343, 115.914 152.152 C 115.340 151.953, 115.141 152.806, 115.447 154.152 M 302.885 195.596 C 274.073 219.608, 250.500 239.665, 250.500 240.168 C 250.500 241.492, 336.337 296.085, 337.063 295.223 C 337.850 294.290, 356.303 152.970, 355.715 152.381 C 355.470 152.137, 331.697 171.583, 302.885 195.596 M 98.743 168.709 C 83.823 206.226, 72.917 235.333, 73.175 236.944 C 73.448 238.654, 114.908 279.426, 115.634 278.699 C 116.007 278.327, 101.159 165.825, 100.673 165.339 C 100.440 165.107, 99.572 166.623, 98.743 168.709 M 370.582 168.029 C 369.364 175.179, 356.001 278.335, 356.260 278.593 C 356.934 279.267, 398.537 238.370, 398.825 236.750 C 399.087 235.276, 374.795 171.327, 371.960 166.029 C 371.403 164.988, 371.001 165.572, 370.582 168.029 M 244 307.626 C 244 337.882, 244.373 359.029, 244.903 358.833 C 246.602 358.206, 322.987 307.501, 322.988 307 C 322.988 306.560, 306.394 295.837, 257.750 264.846 L 244 256.085 244 307.626 M 221 260.106 C 218.525 261.728, 201.313 272.786, 182.750 284.678 C 164.188 296.570, 149 306.623, 149 307.017 C 149 307.740, 226.325 359, 227.415 359 C 227.737 359, 228 336.050, 228 308 C 228 267.825, 227.735 257.017, 226.750 257.078 C 226.063 257.121, 223.475 258.483, 221 260.106" stroke="none" fill="#fbfbfb" fill-rule="evenodd"/></svg>